# xmcd CD Database Entry
#
# Track frame offsets:
# 150
# 7433
# 14370
# 24521
# 38772
# 45275
# 58916
# 74456
# 85135
# 91503
# 102934
# 114122
# 127124
# 141219
# 153198
# 161638
# 172430
#
# Disc length: 2430 seconds
#
# Revision: 1
# Processed by: cddbd v1.4PL0 Copyright (c) Steve Scherf et al.
# Submitted via: tcd 2.0b
#
DISCID=de097c11
DTITLE=Various Artist - Guys and Dolls
DYEAR=1900
DGENRE=
TTITLE0=Fugue for Tinhorns
TTITLE1=Follow the Fold
TTITLE2=The Oldest Established
TTITLE3=I'll Know
TTITLE4=A Bushel and a Peck
TTITLE5=Guys and Dolls
TTITLE6=Adelaide's Lament
TTITLE7=If I were a Bell
TTITLE8=My Time of Day
TTITLE9=I've Never Been In Love Before
TTITLE10=Take Back Your Mink
TTITLE11=More I Cannot Wish You
TTITLE12=Luck Be A Lady
TTITLE13=Sue Me
TTITLE14=Marry the Man Today
TTITLE15=Sit Down, You're Rocking the Boat
TTITLE16=Guys and Dolls (Reprise)
EXTD=
EXTT0=
EXTT1=
EXTT2=
EXTT3=
EXTT4=
EXTT5=
EXTT6=
EXTT7=
EXTT8=
EXTT9=
EXTT10=
EXTT11=
EXTT12=
EXTT13=
EXTT14=
EXTT15=
EXTT16=
PLAYORDER=
